<svg xmlns="http://www.w3.org/2000/svg" version="1.1" xmlns:xlink="http://www.w3.org/1999/xlink" xmlns:svgjs="http://svgjs.com/svgjs" width="1440" height="560" preserveAspectRatio="none" viewBox="0 0 1440 560"><g mask="url(&quot;#SvgjsMask1050&quot;)" fill="none"><rect width="1440" height="560" x="0" y="0" fill="rgba(1, 10, 20, 1)"></rect><path d="M0,517.213C96.815,516.612,189.873,472.992,263.785,410.457C332.631,352.208,364.729,265.514,397.013,181.31C427.484,101.833,459.935,19.838,445.722,-64.085C431.669,-147.065,377.277,-215.657,319.433,-276.79C263.542,-335.859,195.481,-378.353,119.921,-408.413C38.093,-440.966,-49.819,-482.255,-134.271,-457.285C-218.691,-432.325,-258.83,-340.486,-320.913,-278.072C-388.537,-210.088,-494.905,-167.776,-515.421,-74.106C-536.017,19.93,-468.091,108.046,-424.255,193.751C-382.26,275.857,-339.237,357.832,-265.899,413.747C-188.703,472.603,-97.071,517.816,0,517.213" fill="#01080f"></path><path d="M1440 1098.617C1538.066 1084.01 1596.064 986.217 1678.812 931.5989999999999 1760.219 877.867 1868.587 861.675 1922.316 780.266 1978.868 694.579 1984.115 585.349 1974.81 483.106 1965.158 377.054 1930.951 274.961 1868.479 188.721 1802.212 97.24099999999999 1719.937 7.222999999999956 1610.321-20.05899999999997 1501.996-47.01999999999998 1388.851-4.715000000000032 1288.606 44.399 1199.294 88.15699999999998 1128.981 159.961 1073.8890000000001 242.76299999999998 1023.694 318.204 999.472 405.142 988.721 495.116 978.1800000000001 583.335 986.025 670.399 1012.664 755.158 1042.249 849.293 1073.715 948.457 1150.627 1010.273 1230.8609999999999 1074.759 1338.186 1113.7820000000002 1440 1098.617" fill="#010d19"></path></g><defs><mask id="SvgjsMask1050"><rect width="1440" height="560" fill="#ffffff"></rect></mask></defs></svg>