<svg xmlns="http://www.w3.org/2000/svg" version="1.1" xmlns:xlink="http://www.w3.org/1999/xlink" xmlns:svgjs="http://svgjs.com/svgjs" width="1440" height="800" preserveAspectRatio="none" viewBox="0 0 1440 800"><g mask="url(&quot;#SvgjsMask1418&quot;)" fill="none"><rect width="1440" height="800" x="0" y="0" fill="url(#SvgjsLinearGradient1419)"></rect><path d="M651.832,779.173C704.338,776.926,746.642,739.666,771.196,693.201C794.052,649.95,795.655,597.698,769.616,556.285C745.06,517.232,697.962,503.826,651.832,503.366C604.682,502.895,556.669,515.071,529.906,553.892C499.236,598.382,487.634,656.714,513.355,704.237C540.13,753.708,595.631,781.578,651.832,779.173" fill="rgba(28, 83, 142, 0.4)" class="triangle-float3"></path><path d="M1328.7063506943 393.8389578729515L1457.5796767859945 351.96547590671383 1415.7061948197568 223.09214981501935 1286.8328687280623 264.965631781257z" fill="rgba(28, 83, 142, 0.4)" class="triangle-float3"></path><path d="M150.971,67.282C181.218,65.388,196.876,34.613,211.965,8.33C226.956,-17.782,245.264,-46.624,231.833,-73.572C217.422,-102.487,183.255,-115.266,150.971,-114.052C120.739,-112.915,95.162,-94.04,80.001,-67.86C64.801,-41.613,61.034,-9.956,75.136,16.897C90.26,45.695,118.507,69.315,150.971,67.282" fill="rgba(28, 83, 142, 0.4)" class="triangle-float2"></path><path d="M497.55394940590304 677.6753383170392L286.06483913069803 684.8589080252076 381.33728355282886 843.4188825103399z" fill="rgba(28, 83, 142, 0.4)" class="triangle-float3"></path><path d="M875.985,813.502C911.539,812.76,945.605,795.752,962.65,764.541C979.077,734.46,970.667,699.373,954.944,668.918C937.404,634.944,914.199,597.934,875.985,596.675C836.404,595.371,806.365,628.597,787.471,663.401C769.575,696.368,763.767,735.982,782.821,768.293C801.613,800.161,838.997,814.274,875.985,813.502" fill="rgba(28, 83, 142, 0.4)" class="triangle-float1"></path><path d="M72.51406076654897 666.9670307257268L286.42086178119837 571.7295869314198 191.1834179868914 357.8227859167704-22.72338302775799 453.06022971107734z" fill="rgba(28, 83, 142, 0.4)" class="triangle-float3"></path><path d="M881.974,974.825C969.753,973.917,1040.612,911.28,1083.995,834.965C1126.795,759.674,1142.996,667.626,1099.019,593.016C1055.605,519.363,967.429,489.582,881.974,492.227C801.411,494.721,728.663,536.759,687.019,605.77C643.846,677.315,633.554,765.332,672.585,839.218C714.214,918.023,792.854,975.746,881.974,974.825" fill="rgba(28, 83, 142, 0.4)" class="triangle-float2"></path><path d="M1144.1277031287843 703.2742631967529L1184.8504925374352 539.9440758761407 1021.5203052168229 499.2212864674898 980.797515808172 662.5514737881022z" fill="rgba(28, 83, 142, 0.4)" class="triangle-float3"></path></g><defs><mask id="SvgjsMask1418"><rect width="1440" height="800" fill="#ffffff"></rect></mask><linearGradient x1="11.11%" y1="-20%" x2="88.89%" y2="120%" gradientUnits="userSpaceOnUse" id="SvgjsLinearGradient1419"><stop stop-color="rgba(8, 10, 48, 1)" offset="0"></stop><stop stop-color="rgba(2, 6, 11, 1)" offset="1"></stop></linearGradient><style>
            @keyframes float1 {
                0%{transform: translate(0, 0)}
                50%{transform: translate(-10px, 0)}
                100%{transform: translate(0, 0)}
            }

            .triangle-float1 {
                animation: float1 5s infinite;
            }

            @keyframes float2 {
                0%{transform: translate(0, 0)}
                50%{transform: translate(-5px, -5px)}
                100%{transform: translate(0, 0)}
            }

            .triangle-float2 {
                animation: float2 4s infinite;
            }

            @keyframes float3 {
                0%{transform: translate(0, 0)}
                50%{transform: translate(0, -10px)}
                100%{transform: translate(0, 0)}
            }

            .triangle-float3 {
                animation: float3 6s infinite;
            }
        </style></defs></svg>