<svg xmlns="http://www.w3.org/2000/svg" version="1.1" xmlns:xlink="http://www.w3.org/1999/xlink" xmlns:svgjs="http://svgjs.com/svgjs" width="1440" height="800" preserveAspectRatio="none" viewBox="0 0 1440 800"><g mask="url(&quot;#SvgjsMask1911&quot;)" fill="none"><rect width="1440" height="800" x="0" y="0" fill="url(#SvgjsLinearGradient1912)"></rect><path d="M787.657,994.435C853.102,992.025,910.877,956.853,945.532,901.285C982.596,841.853,1002.456,766.999,967.261,706.442C932.194,646.106,857.439,630.352,787.657,629.646C716.259,628.924,639.774,642.372,601.649,702.744C561.387,766.5,567.731,850.125,608.274,913.703C646.061,972.959,717.426,997.021,787.657,994.435" fill="rgba(28, 83, 142, 0.4)" class="triangle-float3"></path><path d="M404.851,574.057C425.23,573.362,446.02,568.311,457.167,551.236C469.347,532.579,471.823,508.09,460.407,488.956C449.224,470.212,426.672,464.021,404.851,463.547C381.945,463.049,357.35,467.183,344.95,486.448C331.687,507.053,332.136,534.801,345.966,555.029C358.445,573.28,382.755,574.811,404.851,574.057" fill="rgba(28, 83, 142, 0.4)" class="triangle-float2"></path><path d="M1355.037,341.305C1426.944,339.164,1475.727,277.916,1512.935,216.347C1551.986,151.727,1588.147,77.514,1555.634,9.37C1519.356,-66.665,1439.282,-115.065,1355.037,-114.59C1271.539,-114.119,1196.47,-62.664,1158.321,11.611C1123.106,80.172,1140.473,160.073,1179.966,226.262C1218.314,290.533,1280.228,343.533,1355.037,341.305" fill="rgba(28, 83, 142, 0.4)" class="triangle-float3"></path><path d="M541.432,731.652C600.533,734.107,666.274,730.051,698.987,680.768C734.388,627.436,730.402,554.383,694.094,501.664C661.562,454.429,598.764,450.428,541.432,452.002C487.753,453.475,431.248,464.228,402.628,509.665C372.37,557.703,374.929,620.42,405.028,668.557C433.494,714.083,487.785,729.423,541.432,731.652" fill="rgba(28, 83, 142, 0.4)" class="triangle-float2"></path><path d="M1153.359,770.378C1216.641,770.475,1262.356,717.445,1293.924,662.599C1325.399,607.916,1345.641,543.23,1316.231,487.41C1285.112,428.345,1220.039,392.51,1153.359,395.804C1091.4,398.864,1044.992,447.304,1016.16,502.232C989.599,552.832,987.509,611.294,1013.54,662.169C1042.312,718.401,1090.194,770.281,1153.359,770.378" fill="rgba(28, 83, 142, 0.4)" class="triangle-float1"></path><path d="M1341.308,644.317C1383.597,644.05,1417.172,612.815,1437.968,575.991C1458.364,539.875,1466.634,495.714,1445.324,460.13C1424.481,425.326,1381.841,412.891,1341.308,414.582C1303.91,416.142,1270.742,436.232,1251.309,468.223C1231.025,501.615,1224.728,542.436,1242.508,577.226C1261.925,615.219,1298.642,644.587,1341.308,644.317" fill="rgba(28, 83, 142, 0.4)" class="triangle-float2"></path><path d="M808.807,280.431C850.041,278.575,875.384,238.813,893.287,201.622C908.455,170.113,910.59,134.45,893.863,103.74C876.345,71.578,845.419,47.431,808.807,46.524C770.708,45.58,735.844,66.724,716.125,99.337C695.662,133.181,692.023,174.664,710.041,209.87C729.798,248.474,765.485,282.381,808.807,280.431" fill="rgba(28, 83, 142, 0.4)" class="triangle-float3"></path><path d="M1294.428,557.506C1315.432,559.238,1339.509,557.848,1350.771,540.034C1362.535,521.426,1356.266,497.184,1344.211,478.763C1333.328,462.133,1314.297,454.396,1294.428,453.939C1273.57,453.459,1250.454,458.033,1240.512,476.376C1230.853,494.197,1240.953,515.019,1252.172,531.901C1261.942,546.603,1276.836,556.055,1294.428,557.506" fill="rgba(28, 83, 142, 0.4)" class="triangle-float3"></path><path d="M525.333,309.102C595.541,308.526,657.334,266.381,692.337,205.518C727.231,144.844,734.058,69.385,697.537,9.676C662.357,-47.84,592.747,-66.491,525.333,-67.521C455.588,-68.586,380.65,-54.933,343.769,4.272C305.185,66.211,316.171,145.602,353.514,208.297C389.934,269.443,454.165,309.686,525.333,309.102" fill="rgba(28, 83, 142, 0.4)" class="triangle-float2"></path><path d="M837.748,404.718C879.986,404.26,911.011,368.655,930.209,331.03C947.495,297.153,948.273,257.748,929.666,224.579C910.634,190.653,876.621,167.669,837.748,166.211C796.173,164.651,753.801,181.14,733.054,217.202C712.352,253.185,721.512,296.827,741.749,333.073C762.612,370.439,794.955,405.182,837.748,404.718" fill="rgba(28, 83, 142, 0.4)" class="triangle-float2"></path></g><defs><mask id="SvgjsMask1911"><rect width="1440" height="800" fill="#ffffff"></rect></mask><linearGradient x1="11.11%" y1="-20%" x2="88.89%" y2="120%" gradientUnits="userSpaceOnUse" id="SvgjsLinearGradient1912"><stop stop-color="rgba(8, 10, 48, 1)" offset="0.19"></stop><stop stop-color="rgba(0, 0, 0, 1)" offset="0.71"></stop></linearGradient><style>
            @keyframes float1 {
                0%{transform: translate(0, 0)}
                50%{transform: translate(-10px, 0)}
                100%{transform: translate(0, 0)}
            }

            .triangle-float1 {
                animation: float1 5s infinite;
            }

            @keyframes float2 {
                0%{transform: translate(0, 0)}
                50%{transform: translate(-5px, -5px)}
                100%{transform: translate(0, 0)}
            }

            .triangle-float2 {
                animation: float2 4s infinite;
            }

            @keyframes float3 {
                0%{transform: translate(0, 0)}
                50%{transform: translate(0, -10px)}
                100%{transform: translate(0, 0)}
            }

            .triangle-float3 {
                animation: float3 6s infinite;
            }
        </style></defs></svg>