<svg xmlns="http://www.w3.org/2000/svg" version="1.1" xmlns:xlink="http://www.w3.org/1999/xlink" xmlns:svgjs="http://svgjs.com/svgjs" width="1440" height="560" preserveAspectRatio="none" viewBox="0 0 1440 560"><g mask="url(&quot;#SvgjsMask1326&quot;)" fill="none"><rect width="1440" height="560" x="0" y="0" fill="rgba(1, 8, 16, 1)"></rect><path d="M140 109.09C81.14 134.32 40.01 136.17 0 105C-29.99 81.63 -30 22.5 0 0C40 -30 70 0 140 0C192.5 0 245 -22.34 245 0C245 32.21 203.64 81.82 140 109.09" stroke="rgba(51, 121, 194, 0.58)" stroke-width="2"></path><path d="M321.82 140C374.02 78.88 368.12 72.7 420 11.86C427.81 2.7 429.32 1.01 441.21 0C499.32 -4.92 500.61 0 560 0C630 0 630 0 700 0C770 0 770 0 840 0C910 0 910 0 980 0C1050 0 1050 0 1120 0C1190 0 1190 0 1260 0C1328.84 0 1329.33 -1.18 1397.67 0C1399.33 0.03 1398.47 1.72 1400 2.41C1469.64 33.72 1493.24 18.04 1540 64C1563.24 86.84 1540 102 1540 140C1540 210 1540 210 1540 280C1540 350 1540 350 1540 420C1540 490 1572.67 522.67 1540 560C1511.42 592.67 1473.57 569.97 1417.5 560C1403.57 557.52 1410.44 535.11 1400 535.11C1386.55 535.11 1388.15 556.73 1369.73 560C1318.15 569.17 1314.86 560 1260 560C1190 560 1190 560 1120 560C1062.97 560 1061.99 564.6 1005.93 560C991.99 558.86 993.52 548.52 980 548.52C955.55 548.52 955.41 557.92 930 560C885.41 563.66 885 560 840 560C770 560 770 560 700 560C630 560 630 560 560 560C490 560 490 560 420 560C350 560 350 560 280 560C210 560 210 560 140 560C70 560 35.92 594.08 0 560C-34.08 527.67 -31.06 436.63 0 427.18C38.94 415.33 64.22 497.8 140 517.39C204.22 533.99 217.47 525.51 280 499.55C334.76 476.82 374.59 452.22 374.59 420C374.59 393.42 327.08 401.5 280 381.96C209.78 352.81 207.03 315.67 140 322.61C67.03 330.17 39.08 422.86 0 410.97C-30.92 401.56 0 345.49 0 280C0 233.87 -26.75 195.53 0 187.73C43.25 175.12 71.05 242.11 140 239.17C211.05 236.14 213.06 212.29 280 175.78C303.97 162.7 304.02 160.84 321.82 140" stroke="rgba(51, 121, 194, 0.58)" stroke-width="2"></path><path d="M700 70C670.93 70 668.56 101.96 662.22 140C651.06 206.96 650.94 215.63 665 280C669.83 302.1 683.21 312.94 700 312.94C715.44 312.94 716.52 297.87 729.47 280C779.15 211.4 833.24 196.88 825.26 140C818.51 91.88 752.45 70 700 70" stroke="rgba(51, 121, 194, 0.58)" stroke-width="2"></path><path d="M1120 66.67C1109.23 66.67 1100 104.14 1100 140C1100 162.8 1109.33 184 1120 184C1130.99 184 1143.33 163.05 1143.33 140C1143.33 104.38 1130.9 66.67 1120 66.67" stroke="rgba(51, 121, 194, 0.58)" stroke-width="2"></path><path d="M560 360C530.35 360 500 388.85 500 420C500 453.85 530.4 490 560 490C589.04 490 617.27 453.91 617.27 420C617.27 388.91 588.98 360 560 360" stroke="rgba(51, 121, 194, 0.58)" stroke-width="2"></path><path d="M140 63.64C78.13 77.99 52.59 70.58 0 46.67C-17.41 38.76 -17.5 5.83 0 0C52.5 -17.5 70 0 140 0C170.63 0 201.25 -13.03 201.25 0C201.25 18.79 178.75 54.65 140 63.64" stroke="rgba(51, 121, 194, 0.58)" stroke-width="2"></path><path d="M367.27 140C397.38 109.14 386.44 97.29 420 71.19C476.44 27.29 482.89 32.74 547.27 0C552.89 -2.86 553.63 0 560 0C579.09 0 593.19 -14.98 598.18 0C616.52 55.02 617.9 73.41 606.67 140C598.81 186.65 597.59 200.92 560 226.47C504.26 264.36 487.24 242.78 420 266.88C412.57 269.54 417.65 276.16 410.67 280C347.65 314.68 343.37 343.91 280 343.91C229.03 343.91 182 312.2 182 280C182 247.58 233.1 250.11 280 214.67C325.74 180.11 327.38 180.88 367.27 140" stroke="rgba(51, 121, 194, 0.58)" stroke-width="2"></path><path d="M890.31 140C861.1 78.94 842.95 39.11 868 0C887.79 -30.89 924 0 980 0C1016.13 0 1039.57 -23.83 1052.26 0C1076.85 46.17 1074 76.98 1054.55 140C1037.87 194.03 1019.43 234.1 980 234.1C937.31 234.1 917.1 195.99 890.31 140" stroke="rgba(51, 121, 194, 0.58)" stroke-width="2"></path><path d="M1196.36 140C1203.35 72.19 1143.86 41.8 1162.86 0C1175.68 -28.2 1211.43 0 1260 0C1299.66 0 1306 -14.94 1339.33 0C1376 16.44 1365.85 35.99 1400 62.76C1455.13 105.99 1459.56 100.53 1517.89 140C1529.56 147.9 1537.93 144.4 1540 157.5C1548.99 214.4 1540 218.75 1540 280C1540 350 1540 350 1540 420C1540 490 1562.84 512.84 1540 560C1528.94 582.84 1496.74 578.01 1472.19 560C1426.74 526.67 1443.06 457.33 1400 457.33C1344.54 457.33 1339.15 513.06 1275.14 560C1269.15 564.4 1267.57 560 1260 560C1220 560 1196.69 585.4 1180 560C1150.69 515.4 1179.36 489.13 1168 420C1156.36 349.13 1127.13 347.84 1134 280C1141.31 207.84 1188.92 212.19 1196.36 140" stroke="rgba(51, 121, 194, 0.58)" stroke-width="2"></path><path d="M0 267.27C8.79 267.27 25.45 272.66 25.45 280C25.45 288.05 8.06 298.06 0 298.06C-4.66 298.06 0 289.03 0 280C0 273.63 -3.93 267.27 0 267.27" stroke="rgba(51, 121, 194, 0.58)" stroke-width="2"></path><path d="M767.2 420C767.2 382.54 793.8 359.34 840 340.87C900.2 316.79 917.97 314.53 980 334.9C1038.44 354.09 1080.93 379.63 1080.93 420C1080.93 457.76 1036.4 476.46 980 491.15C915.94 507.84 903.13 503.87 840 482.76C796.73 468.29 767.2 453.49 767.2 420" stroke="rgba(51, 121, 194, 0.58)" stroke-width="2"></path><path d="M0 516.92C17.39 516.92 56 547.98 56 560C56 569.52 15.83 572.17 0 560C-12.17 550.63 -10.61 516.92 0 516.92" stroke="rgba(51, 121, 194, 0.58)" stroke-width="2"></path><path d="M140 18.18C96.21 18.18 46.67 4.59 46.67 0C46.67 -4.5 93.34 0 140 0C148.75 0 157.5 -3.72 157.5 0C157.5 5.37 151.62 18.18 140 18.18" stroke="rgba(51, 121, 194, 0.58)" stroke-width="2"></path><path d="M412.73 140C412.73 134.78 414.41 130.51 420 130.51C453.04 130.51 490 133.32 490 140C490 146.82 450.6 157.5 420 157.5C411.96 157.5 412.73 148.27 412.73 140" stroke="rgba(51, 121, 194, 0.58)" stroke-width="2"></path><path d="M945 140C945 98.65 963.81 50.4 980 50.4C995.86 50.4 1009.09 97.82 1009.09 140C1009.09 160.98 995.39 176.72 980 176.72C963.34 176.72 945 161.81 945 140" stroke="rgba(51, 121, 194, 0.58)" stroke-width="2"></path><path d="M1249.39 140C1239.09 70.58 1229.8 59.19 1234.29 0C1235.11 -10.81 1247.14 0 1260 0C1270.5 0 1273.35 -6.72 1281 0C1343.35 54.83 1338.65 63.78 1400 123.1C1411.05 133.78 1413.56 130.63 1425.79 140C1483.56 184.29 1497.4 178.2 1540 230.42C1554.5 248.2 1540 255.21 1540 280C1540 336.66 1570.69 376.89 1540 393.33C1500.69 414.39 1461.23 388.41 1400 355C1357.36 331.74 1363.03 319.93 1332.26 280C1293.03 229.09 1292.59 228.38 1260 173.33C1251.15 158.38 1251.95 157.24 1249.39 140" stroke="rgba(51, 121, 194, 0.58)" stroke-width="2"></path><path d="M240.33 280C240.33 266.88 259.34 253.56 280 253.56C305.62 253.56 332.89 266.89 332.89 280C332.89 293.05 305.65 305.87 280 305.87C259.37 305.87 240.33 293.03 240.33 280" stroke="rgba(51, 121, 194, 0.58)" stroke-width="2"></path><path d="M933.33 420C933.33 412.38 958.17 403.53 980 403.53C991.27 403.53 999.53 412.19 999.53 420C999.53 427.31 990.9 433.77 980 433.77C957.8 433.77 933.33 427.5 933.33 420" stroke="rgba(51, 121, 194, 0.58)" stroke-width="2"></path><path d="M1526.88 560C1526.88 523.61 1536.7 476 1540 476C1543.26 476 1545.67 523.67 1540 560C1539.11 565.67 1526.88 565.61 1526.88 560" stroke="rgba(51, 121, 194, 0.58)" stroke-width="2"></path></g><defs><mask id="SvgjsMask1326"><rect width="1440" height="560" fill="#ffffff"></rect></mask></defs></svg>